<svg width="24" height="24" viewBox="0 0 24 24" fill="none" xmlns="http://www.w3.org/2000/svg">
<g clip-path="url(#clip0_116_1725)">
<path d="M15.8702 15.25L12.5002 13.25V8.72002C12.5002 8.32002 12.1802 8.00002 11.7802 8.00002H11.7203C11.3203 8.00002 11.0002 8.32002 11.0002 8.72002V13.44C11.0002 13.79 11.1802 14.12 11.4902 14.3L15.1403 16.49C15.4803 16.69 15.9203 16.59 16.1203 16.25C16.3303 15.9 16.2203 15.45 15.8702 15.25ZM21.1803 5.01002L18.1003 2.45002C17.6803 2.10002 17.0503 2.15002 16.6903 2.58002C16.3403 3.00002 16.4002 3.63002 16.8202 3.99002L19.8902 6.55002C20.3102 6.90002 20.9402 6.85002 21.3002 6.42002C21.6602 6.00002 21.6003 5.37002 21.1803 5.01002ZM4.10025 6.55002L7.17025 3.99002C7.60025 3.63002 7.66025 3.00002 7.30025 2.58002C6.95025 2.15002 6.32025 2.10002 5.90025 2.45002L2.82025 5.01002C2.40025 5.37002 2.34025 6.00002 2.70025 6.42002C3.05025 6.85002 3.68025 6.90002 4.10025 6.55002ZM12.0002 4.00002C7.03025 4.00002 3.00025 8.03002 3.00025 13C3.00025 17.97 7.03025 22 12.0002 22C16.9702 22 21.0002 17.97 21.0002 13C21.0002 8.03002 16.9702 4.00002 12.0002 4.00002ZM12.0002 20C8.14025 20 5.00025 16.86 5.00025 13C5.00025 9.14002 8.14025 6.00002 12.0002 6.00002C15.8602 6.00002 19.0002 9.14002 19.0002 13C19.0002 16.86 15.8602 20 12.0002 20Z" fill="black"/>
</g>
<defs>
<clipPath id="clip0_116_1725">
<rect width="24" height="24" fill="white"/>
</clipPath>
</defs>
</svg>
