<svg width="32" height="32" viewBox="0 0 56 56" fill="none" xmlns="http://www.w3.org/2000/svg">
<g clip-path="url(#clip0_88_922)">
<path d="M14.9332 21.4667H15.3998C17.1965 21.4667 18.6665 22.9367 18.6665 24.7334V41.0667C18.6665 42.8634 17.1965 44.3334 15.3998 44.3334H14.9332C13.1365 44.3334 11.6665 42.8634 11.6665 41.0667V24.7334C11.6665 22.9367 13.1365 21.4667 14.9332 21.4667V21.4667ZM27.9998 11.6667C29.7965 11.6667 31.2665 13.1367 31.2665 14.9334V41.0667C31.2665 42.8634 29.7965 44.3334 27.9998 44.3334C26.2032 44.3334 24.7332 42.8634 24.7332 41.0667V14.9334C24.7332 13.1367 26.2032 11.6667 27.9998 11.6667ZM41.0665 30.3334C42.8632 30.3334 44.3332 31.8034 44.3332 33.6V41.0667C44.3332 42.8634 42.8632 44.3334 41.0665 44.3334C39.2698 44.3334 37.7998 42.8634 37.7998 41.0667V33.6C37.7998 31.8034 39.2698 30.3334 41.0665 30.3334V30.3334Z" fill="white"/>
</g>
<defs>
<clipPath id="clip0_88_922">
<rect width="56" height="56" fill="white"/>
</clipPath>
</defs>
</svg>
