<svg width="32" height="32" viewBox="0 0 40 40" fill="none" xmlns="http://www.w3.org/2000/svg">
<path fill-rule="evenodd" clip-rule="evenodd" d="M36.6668 10.8333C36.6668 14.9754 33.309 18.3333 29.1668 18.3333C25.0247 18.3333 21.6668 14.9754 21.6668 10.8333C21.6668 6.69118 25.0247 3.33331 29.1668 3.33331C33.309 3.33331 36.6668 6.69118 36.6668 10.8333ZM26.6668 6.74998C27.081 6.74998 27.4168 7.08577 27.4168 7.49998V10.0833H30.9168V7.49998C30.9168 7.08577 31.2526 6.74998 31.6668 6.74998C32.081 6.74998 32.4168 7.08577 32.4168 7.49998V10.8333V14.1666C32.4168 14.5809 32.081 14.9166 31.6668 14.9166C31.2526 14.9166 30.9168 14.5809 30.9168 14.1666V11.5833H27.4168V14.1666C27.4168 14.5809 27.081 14.9166 26.6668 14.9166C26.2526 14.9166 25.9168 14.5809 25.9168 14.1666V10.8333V7.49998C25.9168 7.08577 26.2526 6.74998 26.6668 6.74998ZM4.5835 15C4.5835 14.3096 4.02385 13.75 3.3335 13.75C2.64314 13.75 2.0835 14.3096 2.0835 15V36.6666C2.0835 37.357 2.64314 37.9166 3.3335 37.9166C4.02385 37.9166 4.5835 37.357 4.5835 36.6666V31.25H34.1668V36.6666C34.1668 37.357 34.7265 37.9166 35.4168 37.9166C36.1072 37.9166 36.6668 37.357 36.6668 36.6666V30V25.3333C36.6668 24.2287 35.7714 23.3333 34.6668 23.3333H16.6668V19.3333C16.6668 18.781 16.2191 18.3333 15.6668 18.3333H9.3335C8.78121 18.3333 8.3335 18.781 8.3335 19.3333V23.3333H4.5835V15Z" fill="white"/>
</svg>
