<svg width="25" height="28" viewBox="0 0 45 47" fill="none" xmlns="http://www.w3.org/2000/svg">
<path d="M34.9987 13.0009C34.841 12.9783 34.6833 12.9783 34.5256 13.0009C31.0331 12.8882 28.2617 10.0267 28.2617 6.51169C28.2617 2.92914 31.1683 0 34.7734 0C38.356 0 41.2851 2.9066 41.2851 6.51169C41.2626 10.0267 38.4912 12.8882 34.9987 13.0009Z" fill="white"/>
<path d="M42.3495 28.6163C39.826 30.3062 36.2885 30.9371 33.0213 30.509C33.8776 28.6613 34.3282 26.611 34.3507 24.4479C34.3507 22.1947 33.855 20.0542 32.9087 18.1841C36.2434 17.7334 39.7809 18.3643 42.327 20.0542C45.887 22.3975 45.887 26.2504 42.3495 28.6163Z" fill="white"/>
<path d="M10.0134 13.0009C10.1711 12.9783 10.3288 12.9783 10.4865 13.0009C13.979 12.8882 16.7504 10.0267 16.7504 6.51169C16.7504 2.9066 13.8438 0 10.2387 0C6.65612 0 3.74951 2.9066 3.74951 6.51169C3.74951 10.0267 6.52092 12.8882 10.0134 13.0009Z" fill="white"/>
<path d="M10.2632 24.4483C10.2632 26.6339 10.7364 28.7068 11.5926 30.577C8.41563 30.915 5.10346 30.239 2.67002 28.6393C-0.890007 26.2734 -0.890007 22.4205 2.67002 20.0546C5.08092 18.4323 8.48323 17.7789 11.6827 18.1394C10.7589 20.0321 10.2632 22.1726 10.2632 24.4483Z" fill="white"/>
<path d="M22.8125 31.2516C22.6322 31.2291 22.4294 31.2291 22.2266 31.2516C18.0808 31.1164 14.7686 27.7141 14.7686 23.5232C14.7911 19.2422 18.2385 15.7723 22.5421 15.7723C26.8231 15.7723 30.293 19.2422 30.293 23.5232C30.2705 27.7141 26.9808 31.1164 22.8125 31.2516Z" fill="white"/>
<path d="M15.4902 35.9172C12.0879 38.1929 12.0879 41.9332 15.4902 44.1864C19.3657 46.7775 25.7197 46.7775 29.5952 44.1864C32.9975 41.9106 32.9975 38.1704 29.5952 35.9172C25.7422 33.326 19.3883 33.326 15.4902 35.9172Z" fill="white"/>
</svg>
